<mxfile host="app.diagrams.net" agent="Mozilla/5.0 (X11; Ubuntu; Linux x86_64; rv:143.0) Gecko/20100101 Firefox/143.0" version="28.2.5">
  <diagram name="Seite-1" id="tv3RCUC1lsHie5otSo7a">
    <mxGraphModel dx="1141" dy="661" grid="1" gridSize="10" guides="1" tooltips="1" connect="1" arrows="1" fold="1" page="1" pageScale="1" pageWidth="827" pageHeight="1169" math="0" shadow="0">
      <root>
        <mxCell id="0" />
        <mxCell id="1" parent="0" />
        <mxCell id="zjGeTOThquZhaolVEsW3-271" value="&amp;lt;&amp;lt;interface&amp;gt;&amp;gt;&lt;br&gt;&lt;b&gt;Authorizer&lt;/b&gt;&lt;div&gt;&lt;br/&gt;&lt;/div&gt;" style="swimlane;fontStyle=0;align=center;verticalAlign=top;childLayout=stackLayout;horizontal=1;startSize=40;horizontalStack=0;resizeParent=1;resizeParentMax=0;resizeLast=0;collapsible=0;marginBottom=0;html=1;whiteSpace=wrap;" vertex="1" parent="1">
          <mxGeometry x="380" y="470" width="250" height="148" as="geometry" />
        </mxCell>
        <mxCell id="zjGeTOThquZhaolVEsW3-272" value="" style="line;strokeWidth=1;fillColor=none;align=left;verticalAlign=middle;spacingTop=-1;spacingLeft=3;spacingRight=3;rotatable=0;labelPosition=right;points=[];portConstraint=eastwest;" vertex="1" parent="zjGeTOThquZhaolVEsW3-271">
          <mxGeometry y="40" width="250" height="8" as="geometry" />
        </mxCell>
        <mxCell id="zjGeTOThquZhaolVEsW3-273" value="canAccessReplics(Account): boolean" style="text;html=1;strokeColor=none;fillColor=none;align=left;verticalAlign=middle;spacingLeft=4;spacingRight=4;overflow=hidden;rotatable=0;points=[[0,0.5],[1,0.5]];portConstraint=eastwest;whiteSpace=wrap;" vertex="1" parent="zjGeTOThquZhaolVEsW3-271">
          <mxGeometry y="48" width="250" height="20" as="geometry" />
        </mxCell>
        <mxCell id="zjGeTOThquZhaolVEsW3-274" value="canCreateAccount(Account): boolean" style="text;html=1;strokeColor=none;fillColor=none;align=left;verticalAlign=middle;spacingLeft=4;spacingRight=4;overflow=hidden;rotatable=0;points=[[0,0.5],[1,0.5]];portConstraint=eastwest;whiteSpace=wrap;" vertex="1" parent="zjGeTOThquZhaolVEsW3-271">
          <mxGeometry y="68" width="250" height="20" as="geometry" />
        </mxCell>
        <mxCell id="zjGeTOThquZhaolVEsW3-275" value="canAccessAccountsFull(Account): boolean" style="text;html=1;strokeColor=none;fillColor=none;align=left;verticalAlign=middle;spacingLeft=4;spacingRight=4;overflow=hidden;rotatable=0;points=[[0,0.5],[1,0.5]];portConstraint=eastwest;whiteSpace=wrap;" vertex="1" parent="zjGeTOThquZhaolVEsW3-271">
          <mxGeometry y="88" width="250" height="20" as="geometry" />
        </mxCell>
        <mxCell id="zjGeTOThquZhaolVEsW3-276" value="canChangeServerConfig(Account): boolean" style="text;html=1;strokeColor=none;fillColor=none;align=left;verticalAlign=middle;spacingLeft=4;spacingRight=4;overflow=hidden;rotatable=0;points=[[0,0.5],[1,0.5]];portConstraint=eastwest;whiteSpace=wrap;" vertex="1" parent="zjGeTOThquZhaolVEsW3-271">
          <mxGeometry y="108" width="250" height="20" as="geometry" />
        </mxCell>
        <mxCell id="zjGeTOThquZhaolVEsW3-277" value="canReviewReports(Account): boolean" style="text;html=1;strokeColor=none;fillColor=none;align=left;verticalAlign=middle;spacingLeft=4;spacingRight=4;overflow=hidden;rotatable=0;points=[[0,0.5],[1,0.5]];portConstraint=eastwest;whiteSpace=wrap;" vertex="1" parent="zjGeTOThquZhaolVEsW3-271">
          <mxGeometry y="128" width="250" height="20" as="geometry" />
        </mxCell>
        <mxCell id="zjGeTOThquZhaolVEsW3-285" style="edgeStyle=orthogonalEdgeStyle;rounded=0;orthogonalLoop=1;jettySize=auto;html=1;endArrow=block;endFill=0;" edge="1" parent="1" source="zjGeTOThquZhaolVEsW3-278" target="zjGeTOThquZhaolVEsW3-271">
          <mxGeometry relative="1" as="geometry" />
        </mxCell>
        <mxCell id="zjGeTOThquZhaolVEsW3-278" value="&lt;b&gt;RoleGroupBasedAuthorizer&lt;/b&gt;&lt;div&gt;&lt;br&gt;&lt;/div&gt;" style="swimlane;fontStyle=0;align=center;verticalAlign=top;childLayout=stackLayout;horizontal=1;startSize=30;horizontalStack=0;resizeParent=1;resizeParentMax=0;resizeLast=0;collapsible=0;marginBottom=0;html=1;whiteSpace=wrap;" vertex="1" parent="1">
          <mxGeometry x="380" y="680" width="250" height="58" as="geometry" />
        </mxCell>
        <mxCell id="zjGeTOThquZhaolVEsW3-284" value="configService: ServerConfigService" style="text;html=1;strokeColor=none;fillColor=none;align=left;verticalAlign=middle;spacingLeft=4;spacingRight=4;overflow=hidden;rotatable=0;points=[[0,0.5],[1,0.5]];portConstraint=eastwest;whiteSpace=wrap;" vertex="1" parent="zjGeTOThquZhaolVEsW3-278">
          <mxGeometry y="30" width="250" height="20" as="geometry" />
        </mxCell>
        <mxCell id="zjGeTOThquZhaolVEsW3-279" value="" style="line;strokeWidth=1;fillColor=none;align=left;verticalAlign=middle;spacingTop=-1;spacingLeft=3;spacingRight=3;rotatable=0;labelPosition=right;points=[];portConstraint=eastwest;" vertex="1" parent="zjGeTOThquZhaolVEsW3-278">
          <mxGeometry y="50" width="250" height="8" as="geometry" />
        </mxCell>
      </root>
    </mxGraphModel>
  </diagram>
</mxfile>
